<?xml version="1.0" encoding="UTF-8" standalone="no"?>
<svg
   xmlns:dc="http://purl.org/dc/elements/1.1/"
   xmlns:cc="http://creativecommons.org/ns#"
   xmlns:rdf="http://www.w3.org/1999/02/22-rdf-syntax-ns#"
   xmlns:svg="http://www.w3.org/2000/svg"
   xmlns="http://www.w3.org/2000/svg"
   xmlns:sodipodi="http://sodipodi.sourceforge.net/DTD/sodipodi-0.dtd"
   xmlns:inkscape="http://www.inkscape.org/namespaces/inkscape"
   width="215mm"
   height="287.5mm"
   viewBox="-3 5 215 287.5"
   id="svg3033"
   version="1.1"
   inkscape:version="0.48.3.1 r9886"
   sodipodi:docname="tl.svg">
  <metadata
     id="metadata3041">
    <rdf:RDF>
      <cc:Work
         rdf:about="">
        <dc:format>image/svg+xml</dc:format>
        <dc:type
           rdf:resource="http://purl.org/dc/dcmitype/StillImage" />
        <dc:title></dc:title>
      </cc:Work>
    </rdf:RDF>
  </metadata>
  <defs
     id="defs3039" />
  <sodipodi:namedview
     pagecolor="#ffffff"
     bordercolor="#666666"
     borderopacity="1"
     objecttolerance="10"
     gridtolerance="10"
     guidetolerance="10"
     inkscape:pageopacity="0"
     inkscape:pageshadow="2"
     inkscape:window-width="1001"
     inkscape:window-height="795"
     id="namedview3037"
     showgrid="false"
     inkscape:zoom="0.55855458"
     inkscape:cx="430.62373"
     inkscape:cy="585.57185"
     inkscape:window-x="65"
     inkscape:window-y="24"
     inkscape:window-maximized="0"
     inkscape:current-layer="svg3033" />
  <path
     d="M54.3355 9.3092c16.0514,0 25.3755,0 27.972,0 0,2.8326 0,14.9893 0,36.4699 0,21.4807 0,33.5193 0,36.1159l84.9785 -30.8047c0,8.2618 0,15.6974 0,22.3068l-84.9785 30.8047c0,0.9442 0,2.9507 0,6.0193 0,3.0687 0,5.0751 0,6.0193l46.03 -16.2875 38.9485 -14.5171c0,1.4163 0,5.016 0,10.7993 0,5.7833 0,9.265 0,10.4453 0,0.9442 -0.2361,1.4163 -0.7082,1.4163l-81.7917 29.3884c-0.9442,0.4721 -1.7704,0.9442 -2.4786,1.4163 0,14.3991 0,34.2864 0,59.6619 0,25.3755 0,45.2629 0,59.662 0,0 0,0.118 0,0.3541 0,0.236 0,0.354 0,0.354 21.4807,-2.5965 40.4828,-10.7403 57.0064,-24.4313 18.176,-14.8712 30.3326,-33.4012 36.4699,-55.59 2.5966,-10.1502 3.8949,-20.3004 3.8949,-30.4507 0,0 9.442,0 28.3261,0 0,22.897 -5.5472,44.4957 -16.6416,64.7961 -7.7897,15.5794 -18.412,29.0343 -31.8669,40.3648 -12.5107,11.0944 -26.5558,19.5922 -42.1352,25.4935 -20.3004,7.7897 -41.3089,10.5043 -63.0256,8.1438 0,-15.3433 0,-38.3583 0,-69.045 0,-30.6867 0,-53.8197 0,-69.3991 0,0 -1.5344,0.5902 -4.603,1.7704l-48.5086 17.3498c0,-7.0816 0,-14.5172 0,-22.3069l53.1116 -19.1201c0,-1.4163 0,-5.5472 0,-12.3927 -2.5966,1.1802 -6.0784,2.5966 -10.4453,4.2489 -4.367,1.6524 -7.1406,2.5966 -8.3208,2.8326l-27.9721 10.2683c0,0 -0.7672,0.236 -2.3015,0.7081 -1.5343,0.4721 -2.8916,0.8262 -4.0719,1.0622 0,-11.3304 0,-18.766 0,-22.3068l53.1116 -18.7661c0,-10.3862 0,-24.1952 0,-41.427 0,-17.2317 0,-31.0407 0,-41.427z"
     id="path3035" />
  <path
     style="fill:#f9f9f9"
     d="m 215.92612,1000.7251 -11.1896,-0.6356 0,-245.19052 c 0,-213.99601 -0.33323,-245.19051 -2.61922,-245.19051 -1.44058,0 -6.4759,1.51462 -11.1896,3.36581 -4.7137,1.85121 -45.20921,16.44848 -89.99002,32.43841 -44.780799,15.98991 -82.444979,29.46604 -83.698172,29.94692 -1.800917,0.69109 -2.278533,-7.1887 -2.278533,-37.59158 l 0,-38.46595 48.786638,-17.57984 c 26.832651,-9.6689 69.330737,-24.98579 94.440187,-34.03751 l 45.65355,-16.4577 0.50108,-22.57584 c 0.27559,-12.41673 -0.12729,-22.5794 -0.89517,-22.58375 -0.76794,-0.004 -9.45275,3.17052 -19.2996,7.05522 C 151.87434,405.9549 28.237431,450.32555 21.522937,451.5852 l -6.561962,1.23103 0.0068,-38.24387 0.0068,-38.24387 94.43337,-33.30908 94.43337,-33.3091 0.45799,-147.0672 0.45798,-147.067193 48.32866,0 48.32865,0 0,128.904143 c 0,70.89728 0.30045,128.90415 0.66767,128.90415 0.36721,0 67.35202,-24.16953 148.8551,-53.71006 81.5031,-29.54054 148.89335,-53.71006 149.75611,-53.71006 0.86393,0 1.3516,17.08411 1.08548,38.02731 l -0.48319,38.02733 -134.27515,48.68681 c -73.85134,26.77776 -141.3246,51.22298 -149.94059,54.32273 l -15.66543,5.63589 0,22.23143 c 0,12.22728 0.28957,22.23142 0.64348,22.23142 2.12522,0 172.50175,-61.06619 229.27289,-82.17577 37.34007,-13.88439 68.55904,-25.24435 69.37549,-25.24435 0.81647,0 1.48447,16.95977 1.48447,37.6884 l 0,37.68839 -5.87736,2.45573 c -3.23256,1.35064 -69.09452,25.13656 -146.35992,52.85759 -77.26539,27.72105 -142.29526,51.5686 -144.5108,52.99461 l -4.02825,2.59271 0,213.21492 0,213.21492 10.29443,-1.23965 c 62.09099,-7.47692 133.91812,-38.17629 185.74729,-79.38957 58.82719,-46.77794 98.1899,-99.05937 123.69717,-164.29415 13.30731,-34.03344 22.75401,-76.11534 24.95299,-111.15718 0.54623,-8.70465 1.42013,-20.05629 1.942,-25.22588 l 0.94882,-9.39926 49.10541,0 c 38.1002,0 49.10141,0.50154 49.08768,2.23792 -0.0888,11.22093 -4.27777,57.67275 -6.41769,71.16583 -14.05959,88.65141 -62.13679,189.32683 -121.09019,253.56725 -42.63112,46.45437 -95.6069,87.06603 -147.62255,113.16871 -79.88417,40.08776 -161.31707,56.26312 -256.13387,50.87692 z"
     id="path3043"
     inkscape:connector-curvature="0"
     transform="matrix(0.28222222,0,0,0.28222222,-3,4.9999996)" />
</svg>
